<svg xmlns="http://www.w3.org/2000/svg" viewBox="0 0 24 24">
  <path
    d="M11.274 21.485c-1.284-.103-2.527-.44-3.596-.975a9.169 9.169 0 01-2.774-2.114 8.767 8.767 0 01-.526-.66l-.269-.403c-.572-.855-1.055-1.879-1.269-2.69a2.848 2.848 0 00-.089-.294c-.09-.187-.222-1.127-.269-1.92a10.226 10.226 0 01.082-1.881c.048-.373.15-.853.187-.88.01-.008.044-.12.076-.249.052-.21.143-.474.397-1.155.08-.213.363-.799.505-1.044.498-.863 1.242-1.762 1.956-2.367a9.667 9.667 0 013.948-2.032 9.491 9.491 0 012.748-.295c.763.021 1.424.122 2.332.355 1.12.289 2.322.891 3.345 1.677.38.292 1.256 1.152 1.516 1.489.646.833 1.09 1.597 1.405 2.42.148.386.301.867.366 1.147.019.08.044.153.056.16.012.009.05.165.087.348.148.749.203 1.47.172 2.253-.023.608-.166 1.578-.263 1.787a4.77 4.77 0 00-.107.371 9.397 9.397 0 01-.861 2.097c-.155.278-.509.835-.62.976a.892.892 0 00-.098.144c-.028.073-.469.58-.774.889-1.533 1.554-3.473 2.505-5.702 2.795a12.96 12.96 0 01-1.96.05zm1.494-1.014a9.312 9.312 0 002.592-.615 8.465 8.465 0 002.092-1.229c.353-.282 1.126-1.051 1.394-1.387.112-.14.205-.264.205-.273 0-.01.078-.13.174-.268.487-.704.938-1.705 1.161-2.575.38-1.482.343-3.219-.099-4.641a7.863 7.863 0 00-1.229-2.432c-.802-1.104-1.733-1.928-2.81-2.49a9.191 9.191 0 00-3.08-.968c-.49-.066-1.777-.066-2.264 0-1.337.181-2.568.614-3.565 1.253a8.176 8.176 0 00-2.442 2.395c-.152.228-.293.45-.312.494a1.73 1.73 0 01-.107.19c-.067.105-.27.532-.427.902-.186.437-.37 1.144-.478 1.84-.076.489-.097 1.678-.039 2.241.073.705.252 1.475.497 2.135.189.509.58 1.269.865 1.677.06.087.13.194.158.238.234.39 1.027 1.264 1.458 1.609a9.887 9.887 0 001.572 1.023c.852.428 2.073.766 3.177.878.323.033 1.131.034 1.507.002z"
    fill="white" />
  <path
    d="M5.891 17.782c-.024-.005-.07-.05-.1-.101l-.058-.093.004-5.087c.004-4.5.009-5.095.045-5.15l.04-.062 1.299.01c1.252.01 1.306.013 1.51.07.687.196 1.183.509 1.624 1.027.351.412.581.797.671 1.125.067.245.083.8.03 1.107a1.733 1.733 0 01-.505.972c-.12.121-.258.25-.307.287l-.09.067.29.183c.511.325.926.786 1.136 1.262.296.673.26 1.676-.085 2.39-.309.64-.948 1.26-1.674 1.624-.19.095-.743.284-.833.284-.028 0-.059.011-.067.025-.008.013-.09.032-.182.042-.166.017-2.665.034-2.748.018zm2.799-1.62c.39-.068.57-.144.87-.365.454-.334.715-.817.713-1.318 0-.256-.037-.386-.161-.583-.219-.346-.55-.576-1.025-.711-.2-.056-.27-.06-1.06-.065l-.848-.005v3.088h.637c.455 0 .704-.011.874-.04zm-.11-4.706c.325-.104.695-.406.834-.682.154-.304.189-.707.085-.983-.115-.308-.432-.633-.796-.816-.258-.13-.454-.16-1.024-.16l-.5-.001v2.707l.647-.015c.41-.01.686-.028.754-.05zm6.816 5.522c-.22-.044-.393-.185-.523-.428-.05-.09-.05-.22-.05-3.888V8.867l-1.508-.006c-1.949-.009-1.84-.007-1.843-.032-.001-.012.027-.042.064-.066.07-.046.44-.399.485-.462.027-.037.08-.134.176-.315.027-.051.083-.225.125-.386l.076-.294L15.57 7.3c3.15-.007 3.174-.007 3.34.048a.882.882 0 01.488.418c.092.194.09.48-.006.675a.608.608 0 01-.383.352c-.154.058-.196.06-1.418.069l-1.26.01-.008 3.792-.007 3.793-.057.106a.799.799 0 01-.863.416z"
    fill="white" />
  <path
    d="M11.42 20.48c-.766-.047-1.945-.32-2.757-.64-.61-.24-1.078-.502-1.798-1.008-.398-.28-1.132-.994-1.502-1.46a8.766 8.766 0 01-1.625-3.313c-.383-1.608-.302-3.5.212-4.956C4.383 7.875 5.27 6.55 6.226 5.7c1.078-.96 2.204-1.55 3.622-1.9.842-.21 1.028-.228 2.2-.228 1.017 0 1.05.001 1.454.073 2.562.455 4.459 1.7 5.849 3.835 1.01 1.55 1.451 3.482 1.244 5.442-.147 1.393-.614 2.649-1.446 3.89-.286.427-.45.617-1.036 1.193-.552.543-.93.852-1.415 1.157-1.546.971-3.392 1.432-5.277 1.317zm-2.6-2.749c.044-.017.224-.075.4-.129.176-.054.402-.139.501-.19.744-.373 1.407-1.026 1.7-1.671.272-.6.337-1.429.16-2.053-.166-.592-.596-1.13-1.232-1.546l-.286-.187.161-.134c.35-.293.607-.677.709-1.06.066-.251.065-.986-.002-1.227-.156-.561-.742-1.33-1.303-1.712a3.679 3.679 0 00-.827-.4c-.316-.105-.629-.126-1.985-.128-.89-.001-.994.004-1.027.043-.03.037-.039.87-.05 5.115-.007 2.79-.003 5.102.008 5.138a.416.416 0 00.08.128l.057.061 1.428-.008c1.01-.006 1.452-.018 1.508-.04zm7.05-.808a.861.861 0 00.395-.379l.064-.126V8.867l1.007-.002c1.3-.002 1.575-.02 1.761-.114.343-.175.467-.61.284-.996-.079-.165-.208-.285-.41-.38l-.147-.069H12.4l-.09.319c-.133.466-.235.637-.565.948l-.274.26.221.017c.122.01.872.017 1.667.017h1.446l.008 3.795c.008 3.668.01 3.798.059 3.888.172.318.423.466.743.44a.943.943 0 00.253-.067z"
    fill="black" />
  <path
    d="M7.18 10.161V8.807l.566.014c.628.015.739.037 1.028.197.205.114.491.376.608.557.209.326.227.75.05 1.153-.079.177-.295.409-.519.554-.288.188-.357.201-1.087.219l-.647.015zm0 4.498v-1.55l.38.001c.208.001.62.012.913.024.47.02.557.03.727.09.427.15.673.33.883.644.19.285.233.543.152.924-.114.54-.628 1.1-1.17 1.274-.313.1-.434.114-1.159.129l-.727.015z"
    fill="black" />
</svg>