<svg viewBox="0 0 24 24" xmlns="http://www.w3.org/2000/svg">
  <path
    d="M3.02 4.442h17.96a2.777 2.777 0 012.783 2.783v9.55a2.777 2.777 0 01-2.783 2.783H3.02a2.777 2.777 0 01-2.783-2.783v-9.55A2.777 2.777 0 013.02 4.442z" />
  <path
    d="M4.14 8.766q0-.81-.223-1.192-.223-.398-.89-.398h-.318V6.86H6.84q1.732 0 3.003.572 1.288.572 1.288 2.209 0 .747-.509 1.35-.508.604-1.557.954 1.462.238 2.034.874.588.62.588 1.669 0 1.605-1.271 2.24-1.256.62-3.1.62H4.14zm2.94 2.94q.65 0 1.223-.239.588-.254.953-.73.366-.493.366-1.177 0-.715-.43-1.192-.428-.492-1.096-.715-.651-.238-1.335-.238-.556 0-1.192.159v4.132zm0 5.085q1.445 0 2.224-.572.795-.572.795-1.653 0-1.08-.779-1.653-.763-.572-2.24-.572H5.57v4.228q.762.222 1.51.222zm9.232-9.297h-1.43q-1.986 0-1.986 1.828h-.318V8.13q0-1.271 1.35-1.271h7.39v.635h-3.575v9.853h-1.43z"
    aria-label="BT" fill="#fff" />
</svg>