<svg viewBox="0 0 24 24" xmlns="http://www.w3.org/2000/svg">
  <path
    d="M3.054 4.47h17.892a2.767 2.767 0 012.773 2.773v9.514a2.767 2.767 0 01-2.773 2.773H3.054A2.767 2.767 0 01.28 16.757V7.243A2.767 2.767 0 013.054 4.47z" />
  <path
    d="M4.155 8.675q0-.807-.222-1.187-.221-.396-.886-.396H2.73v-.317h4.117q1.725 0 2.992.57 1.282.57 1.282 2.201 0 .744-.506 1.346-.507.601-1.552.95 1.457.237 2.027.87.585.618.585 1.663 0 1.599-1.266 2.232-1.25.618-3.087.618H4.155zm2.929 2.93q.65 0 1.22-.238.585-.254.95-.729.363-.49.363-1.171 0-.713-.427-1.188-.428-.49-1.093-.712-.649-.238-1.33-.238-.554 0-1.187.159v4.116zm0 5.066q1.44 0 2.217-.57.791-.57.791-1.647t-.776-1.647q-.76-.57-2.232-.57H5.58v4.212q.76.222 1.504.222zM16.283 7.409h-1.425q-1.98 0-1.98 1.82h-.316V8.042q0-1.267 1.346-1.267h7.362v.634h-3.562v9.816h-1.425z"
    aria-label="BT" fill="white" />
</svg>