<svg viewBox="0 0 24 24" xmlns="http://www.w3.org/2000/svg">
  <path
    d="M3.054 4.47h17.892a2.767 2.767 0 012.773 2.773v9.514a2.767 2.767 0 01-2.773 2.773H3.054A2.767 2.767 0 01.28 16.757V7.243A2.767 2.767 0 013.054 4.47z" />
  <path
    d="M3.767 8.834q0-.808-.221-1.188-.222-.396-.887-.396H2.5v-.475h4.274q1.995 0 3.325.554 1.346.555 1.346 2.217 0 .728-.586 1.377-.57.634-1.615.903 2.676.269 2.676 2.501 0 1.647-1.314 2.28-1.314.618-3.357.618H3.767zm3.246 2.675q1.029 0 1.615-.475.601-.49.601-1.567 0-1.093-.712-1.568-.697-.49-1.742-.49-.427 0-.665.063l-.285.047v3.99zm0 5.082q1.314 0 1.995-.57.696-.57.696-1.614 0-2.185-2.691-2.185H5.825v4.211q.175.063.317.08.348.078.792.078zm9.119-9.103h-1.124q-.886 0-1.361.443-.46.443-.46 1.457h-.475V8.042q0-1.267 1.346-1.267H21.5v.713h-3.31v9.737h-2.058z"
    fill="white" />
</svg>